<?xml version="1.0" encoding="utf-8" standalone="no"?>
<!DOCTYPE svg PUBLIC "-//W3C//DTD SVG 1.1//EN"
  "http://www.w3.org/Graphics/SVG/1.1/DTD/svg11.dtd">
<svg xmlns:xlink="http://www.w3.org/1999/xlink" width="324pt" height="216pt" viewBox="0 0 324 216" xmlns="http://www.w3.org/2000/svg" version="1.1">
 <metadata>
  <rdf:RDF xmlns:dc="http://purl.org/dc/elements/1.1/" xmlns:cc="http://creativecommons.org/ns#" xmlns:rdf="http://www.w3.org/1999/02/22-rdf-syntax-ns#">
   <cc:Work>
    <dc:type rdf:resource="http://purl.org/dc/dcmitype/StillImage"/>
    <dc:date>2024-05-22T21:35:11.453002</dc:date>
    <dc:format>image/svg+xml</dc:format>
    <dc:creator>
     <cc:Agent>
      <dc:title>Matplotlib v3.8.3, https://matplotlib.org/</dc:title>
     </cc:Agent>
    </dc:creator>
   </cc:Work>
  </rdf:RDF>
 </metadata>
 <defs>
  <style type="text/css">*{stroke-linejoin: round; stroke-linecap: butt}</style>
 </defs>
 <g id="figure_1">
  <g id="patch_1">
   <path d="M 0 216 
L 324 216 
L 324 0 
L 0 0 
z
" style="fill: #ffffff"/>
  </g>
  <g id="axes_1">
   <g id="patch_2">
    <path d="M 60.5 160 
L 307.8 160 
L 307.8 21.6 
L 60.5 21.6 
z
" style="fill: #ffffff"/>
   </g>
   <g id="matplotlib.axis_1">
    <g id="xtick_1">
     <g id="text_1">
      <!-- 4 -->
      <g style="fill: #262626" transform="translate(96.494643 177.415625) scale(0.15 -0.15)">
       <defs>
        <path id="TimesNewRomanPSMT-34" d="M 2978 1563 
L 2978 1119 
L 2409 1119 
L 2409 0 
L 1894 0 
L 1894 1119 
L 100 1119 
L 100 1519 
L 2066 4325 
L 2409 4325 
L 2409 1563 
L 2978 1563 
z
M 1894 1563 
L 1894 3666 
L 406 1563 
L 1894 1563 
z
" transform="scale(0.015625)"/>
       </defs>
       <use xlink:href="#TimesNewRomanPSMT-34"/>
      </g>
     </g>
    </g>
    <g id="xtick_2">
     <g id="text_2">
      <!-- 8 -->
      <g style="fill: #262626" transform="translate(131.823214 177.415625) scale(0.15 -0.15)">
       <defs>
        <path id="TimesNewRomanPSMT-38" d="M 1228 2134 
Q 725 2547 579 2797 
Q 434 3047 434 3316 
Q 434 3728 753 4026 
Q 1072 4325 1600 4325 
Q 2113 4325 2425 4047 
Q 2738 3769 2738 3413 
Q 2738 3175 2569 2928 
Q 2400 2681 1866 2347 
Q 2416 1922 2594 1678 
Q 2831 1359 2831 1006 
Q 2831 559 2490 242 
Q 2150 -75 1597 -75 
Q 994 -75 656 303 
Q 388 606 388 966 
Q 388 1247 577 1523 
Q 766 1800 1228 2134 
z
M 1719 2469 
Q 2094 2806 2194 3001 
Q 2294 3197 2294 3444 
Q 2294 3772 2109 3958 
Q 1925 4144 1606 4144 
Q 1288 4144 1088 3959 
Q 888 3775 888 3528 
Q 888 3366 970 3203 
Q 1053 3041 1206 2894 
L 1719 2469 
z
M 1375 2016 
Q 1116 1797 991 1539 
Q 866 1281 866 981 
Q 866 578 1086 336 
Q 1306 94 1647 94 
Q 1984 94 2187 284 
Q 2391 475 2391 747 
Q 2391 972 2272 1150 
Q 2050 1481 1375 2016 
z
" transform="scale(0.015625)"/>
       </defs>
       <use xlink:href="#TimesNewRomanPSMT-38"/>
      </g>
     </g>
    </g>
    <g id="xtick_3">
     <g id="text_3">
      <!-- 12 -->
      <g style="fill: #262626" transform="translate(163.401786 177.415625) scale(0.15 -0.15)">
       <defs>
        <path id="TimesNewRomanPSMT-31" d="M 750 3822 
L 1781 4325 
L 1884 4325 
L 1884 747 
Q 1884 391 1914 303 
Q 1944 216 2037 169 
Q 2131 122 2419 116 
L 2419 0 
L 825 0 
L 825 116 
Q 1125 122 1212 167 
Q 1300 213 1334 289 
Q 1369 366 1369 747 
L 1369 3034 
Q 1369 3497 1338 3628 
Q 1316 3728 1258 3775 
Q 1200 3822 1119 3822 
Q 1003 3822 797 3725 
L 750 3822 
z
" transform="scale(0.015625)"/>
        <path id="TimesNewRomanPSMT-32" d="M 2934 816 
L 2638 0 
L 138 0 
L 138 116 
Q 1241 1122 1691 1759 
Q 2141 2397 2141 2925 
Q 2141 3328 1894 3587 
Q 1647 3847 1303 3847 
Q 991 3847 742 3664 
Q 494 3481 375 3128 
L 259 3128 
Q 338 3706 661 4015 
Q 984 4325 1469 4325 
Q 1984 4325 2329 3994 
Q 2675 3663 2675 3213 
Q 2675 2891 2525 2569 
Q 2294 2063 1775 1497 
Q 997 647 803 472 
L 1909 472 
Q 2247 472 2383 497 
Q 2519 522 2628 598 
Q 2738 675 2819 816 
L 2934 816 
z
" transform="scale(0.015625)"/>
       </defs>
       <use xlink:href="#TimesNewRomanPSMT-31"/>
       <use xlink:href="#TimesNewRomanPSMT-32" x="50"/>
      </g>
     </g>
    </g>
    <g id="xtick_4">
     <g id="text_4">
      <!-- 16 -->
      <g style="fill: #262626" transform="translate(198.730357 177.415625) scale(0.15 -0.15)">
       <defs>
        <path id="TimesNewRomanPSMT-36" d="M 2869 4325 
L 2869 4209 
Q 2456 4169 2195 4045 
Q 1934 3922 1679 3669 
Q 1425 3416 1258 3105 
Q 1091 2794 978 2366 
Q 1428 2675 1881 2675 
Q 2316 2675 2634 2325 
Q 2953 1975 2953 1425 
Q 2953 894 2631 456 
Q 2244 -75 1606 -75 
Q 1172 -75 869 213 
Q 275 772 275 1663 
Q 275 2231 503 2743 
Q 731 3256 1154 3653 
Q 1578 4050 1965 4187 
Q 2353 4325 2688 4325 
L 2869 4325 
z
M 925 2138 
Q 869 1716 869 1456 
Q 869 1156 980 804 
Q 1091 453 1309 247 
Q 1469 100 1697 100 
Q 1969 100 2183 356 
Q 2397 613 2397 1088 
Q 2397 1622 2184 2012 
Q 1972 2403 1581 2403 
Q 1463 2403 1327 2353 
Q 1191 2303 925 2138 
z
" transform="scale(0.015625)"/>
       </defs>
       <use xlink:href="#TimesNewRomanPSMT-31"/>
       <use xlink:href="#TimesNewRomanPSMT-36" x="50"/>
      </g>
     </g>
    </g>
    <g id="xtick_5">
     <g id="text_5">
      <!-- 20 -->
      <g style="fill: #262626" transform="translate(234.058929 177.415625) scale(0.15 -0.15)">
       <defs>
        <path id="TimesNewRomanPSMT-30" d="M 231 2094 
Q 231 2819 450 3342 
Q 669 3866 1031 4122 
Q 1313 4325 1613 4325 
Q 2100 4325 2488 3828 
Q 2972 3213 2972 2159 
Q 2972 1422 2759 906 
Q 2547 391 2217 158 
Q 1888 -75 1581 -75 
Q 975 -75 572 641 
Q 231 1244 231 2094 
z
M 844 2016 
Q 844 1141 1059 588 
Q 1238 122 1591 122 
Q 1759 122 1940 273 
Q 2122 425 2216 781 
Q 2359 1319 2359 2297 
Q 2359 3022 2209 3506 
Q 2097 3866 1919 4016 
Q 1791 4119 1609 4119 
Q 1397 4119 1231 3928 
Q 1006 3669 925 3112 
Q 844 2556 844 2016 
z
" transform="scale(0.015625)"/>
       </defs>
       <use xlink:href="#TimesNewRomanPSMT-32"/>
       <use xlink:href="#TimesNewRomanPSMT-30" x="50"/>
      </g>
     </g>
    </g>
    <g id="xtick_6">
     <g id="text_6">
      <!-- 24 -->
      <g style="fill: #262626" transform="translate(269.3875 177.415625) scale(0.15 -0.15)">
       <use xlink:href="#TimesNewRomanPSMT-32"/>
       <use xlink:href="#TimesNewRomanPSMT-34" x="50"/>
      </g>
     </g>
    </g>
    <g id="text_7">
     <!-- MoE Block -->
     <g style="fill: #262626" transform="translate(149.359375 195.039844) scale(0.15 -0.15)">
      <defs>
       <path id="TimesNewRomanPSMT-4d" d="M 2619 0 
L 981 3566 
L 981 734 
Q 981 344 1066 247 
Q 1181 116 1431 116 
L 1581 116 
L 1581 0 
L 106 0 
L 106 116 
L 256 116 
Q 525 116 638 278 
Q 706 378 706 734 
L 706 3503 
Q 706 3784 644 3909 
Q 600 4000 483 4061 
Q 366 4122 106 4122 
L 106 4238 
L 1306 4238 
L 2844 922 
L 4356 4238 
L 5556 4238 
L 5556 4122 
L 5409 4122 
Q 5138 4122 5025 3959 
Q 4956 3859 4956 3503 
L 4956 734 
Q 4956 344 5044 247 
Q 5159 116 5409 116 
L 5556 116 
L 5556 0 
L 3756 0 
L 3756 116 
L 3906 116 
Q 4178 116 4288 278 
Q 4356 378 4356 734 
L 4356 3566 
L 2722 0 
L 2619 0 
z
" transform="scale(0.015625)"/>
       <path id="TimesNewRomanPSMT-6f" d="M 1600 2947 
Q 2250 2947 2644 2453 
Q 2978 2031 2978 1484 
Q 2978 1100 2793 706 
Q 2609 313 2286 112 
Q 1963 -88 1566 -88 
Q 919 -88 538 428 
Q 216 863 216 1403 
Q 216 1797 411 2186 
Q 606 2575 925 2761 
Q 1244 2947 1600 2947 
z
M 1503 2744 
Q 1338 2744 1170 2645 
Q 1003 2547 900 2300 
Q 797 2053 797 1666 
Q 797 1041 1045 587 
Q 1294 134 1700 134 
Q 2003 134 2200 384 
Q 2397 634 2397 1244 
Q 2397 2006 2069 2444 
Q 1847 2744 1503 2744 
z
" transform="scale(0.015625)"/>
       <path id="TimesNewRomanPSMT-45" d="M 1338 4006 
L 1338 2331 
L 2269 2331 
Q 2631 2331 2753 2441 
Q 2916 2584 2934 2947 
L 3050 2947 
L 3050 1472 
L 2934 1472 
Q 2891 1781 2847 1869 
Q 2791 1978 2662 2040 
Q 2534 2103 2269 2103 
L 1338 2103 
L 1338 706 
Q 1338 425 1363 364 
Q 1388 303 1450 267 
Q 1513 231 1688 231 
L 2406 231 
Q 2766 231 2928 281 
Q 3091 331 3241 478 
Q 3434 672 3638 1063 
L 3763 1063 
L 3397 0 
L 131 0 
L 131 116 
L 281 116 
Q 431 116 566 188 
Q 666 238 702 338 
Q 738 438 738 747 
L 738 3500 
Q 738 3903 656 3997 
Q 544 4122 281 4122 
L 131 4122 
L 131 4238 
L 3397 4238 
L 3444 3309 
L 3322 3309 
Q 3256 3644 3176 3769 
Q 3097 3894 2941 3959 
Q 2816 4006 2500 4006 
L 1338 4006 
z
" transform="scale(0.015625)"/>
       <path id="TimesNewRomanPSMT-20" transform="scale(0.015625)"/>
       <path id="TimesNewRomanPSMT-42" d="M 2956 2163 
Q 3397 2069 3616 1863 
Q 3919 1575 3919 1159 
Q 3919 844 3719 555 
Q 3519 266 3170 133 
Q 2822 0 2106 0 
L 106 0 
L 106 116 
L 266 116 
Q 531 116 647 284 
Q 719 394 719 750 
L 719 3488 
Q 719 3881 628 3984 
Q 506 4122 266 4122 
L 106 4122 
L 106 4238 
L 1938 4238 
Q 2450 4238 2759 4163 
Q 3228 4050 3475 3764 
Q 3722 3478 3722 3106 
Q 3722 2788 3528 2536 
Q 3334 2284 2956 2163 
z
M 1319 2331 
Q 1434 2309 1582 2298 
Q 1731 2288 1909 2288 
Q 2366 2288 2595 2386 
Q 2825 2484 2947 2687 
Q 3069 2891 3069 3131 
Q 3069 3503 2766 3765 
Q 2463 4028 1881 4028 
Q 1569 4028 1319 3959 
L 1319 2331 
z
M 1319 306 
Q 1681 222 2034 222 
Q 2600 222 2897 476 
Q 3194 731 3194 1106 
Q 3194 1353 3059 1581 
Q 2925 1809 2622 1940 
Q 2319 2072 1872 2072 
Q 1678 2072 1540 2065 
Q 1403 2059 1319 2044 
L 1319 306 
z
" transform="scale(0.015625)"/>
       <path id="TimesNewRomanPSMT-6c" d="M 1184 4444 
L 1184 647 
Q 1184 378 1223 290 
Q 1263 203 1344 158 
Q 1425 113 1647 113 
L 1647 0 
L 244 0 
L 244 113 
Q 441 113 512 153 
Q 584 194 625 287 
Q 666 381 666 647 
L 666 3247 
Q 666 3731 644 3842 
Q 622 3953 573 3993 
Q 525 4034 450 4034 
Q 369 4034 244 3984 
L 191 4094 
L 1044 4444 
L 1184 4444 
z
" transform="scale(0.015625)"/>
       <path id="TimesNewRomanPSMT-63" d="M 2631 1088 
Q 2516 522 2178 217 
Q 1841 -88 1431 -88 
Q 944 -88 581 321 
Q 219 731 219 1428 
Q 219 2103 620 2525 
Q 1022 2947 1584 2947 
Q 2006 2947 2278 2723 
Q 2550 2500 2550 2259 
Q 2550 2141 2473 2067 
Q 2397 1994 2259 1994 
Q 2075 1994 1981 2113 
Q 1928 2178 1911 2362 
Q 1894 2547 1784 2644 
Q 1675 2738 1481 2738 
Q 1169 2738 978 2506 
Q 725 2200 725 1697 
Q 725 1184 976 792 
Q 1228 400 1656 400 
Q 1963 400 2206 609 
Q 2378 753 2541 1131 
L 2631 1088 
z
" transform="scale(0.015625)"/>
       <path id="TimesNewRomanPSMT-6b" d="M 1047 4444 
L 1047 1594 
L 1775 2259 
Q 2006 2472 2044 2528 
Q 2069 2566 2069 2603 
Q 2069 2666 2017 2711 
Q 1966 2756 1847 2763 
L 1847 2863 
L 3091 2863 
L 3091 2763 
Q 2834 2756 2664 2684 
Q 2494 2613 2291 2428 
L 1556 1750 
L 2291 822 
Q 2597 438 2703 334 
Q 2853 188 2966 144 
Q 3044 113 3238 113 
L 3238 0 
L 1847 0 
L 1847 113 
Q 1966 116 2008 148 
Q 2050 181 2050 241 
Q 2050 313 1925 472 
L 1047 1594 
L 1047 644 
Q 1047 366 1086 278 
Q 1125 191 1197 153 
Q 1269 116 1509 113 
L 1509 0 
L 53 0 
L 53 113 
Q 272 113 381 166 
Q 447 200 481 272 
Q 528 375 528 628 
L 528 3234 
Q 528 3731 506 3842 
Q 484 3953 434 3995 
Q 384 4038 303 4038 
Q 238 4038 106 3984 
L 53 4094 
L 903 4444 
L 1047 4444 
z
" transform="scale(0.015625)"/>
      </defs>
      <use xlink:href="#TimesNewRomanPSMT-4d"/>
      <use xlink:href="#TimesNewRomanPSMT-6f" x="88.916016"/>
      <use xlink:href="#TimesNewRomanPSMT-45" x="138.916016"/>
      <use xlink:href="#TimesNewRomanPSMT-20" x="200"/>
      <use xlink:href="#TimesNewRomanPSMT-42" x="225"/>
      <use xlink:href="#TimesNewRomanPSMT-6c" x="291.699219"/>
      <use xlink:href="#TimesNewRomanPSMT-6f" x="319.482422"/>
      <use xlink:href="#TimesNewRomanPSMT-63" x="369.482422"/>
      <use xlink:href="#TimesNewRomanPSMT-6b" x="413.867188"/>
     </g>
    </g>
   </g>
   <g id="matplotlib.axis_2">
    <g id="ytick_1">
     <g id="line2d_1">
      <path d="M 60.5 160 
L 307.8 160 
" clip-path="url(#p24a5a92020)" style="fill: none; stroke-dasharray: 2.96,1.28; stroke-dashoffset: 0; stroke: #cccccc; stroke-width: 0.8"/>
     </g>
     <g id="text_8">
      <!-- 0.7 -->
      <g style="fill: #262626" transform="translate(34.75 165.207812) scale(0.15 -0.15)">
       <defs>
        <path id="TimesNewRomanPSMT-2e" d="M 800 606 
Q 947 606 1047 504 
Q 1147 403 1147 259 
Q 1147 116 1045 14 
Q 944 -88 800 -88 
Q 656 -88 554 14 
Q 453 116 453 259 
Q 453 406 554 506 
Q 656 606 800 606 
z
" transform="scale(0.015625)"/>
        <path id="TimesNewRomanPSMT-37" d="M 644 4238 
L 2916 4238 
L 2916 4119 
L 1503 -88 
L 1153 -88 
L 2419 3728 
L 1253 3728 
Q 900 3728 750 3644 
Q 488 3500 328 3200 
L 238 3234 
L 644 4238 
z
" transform="scale(0.015625)"/>
       </defs>
       <use xlink:href="#TimesNewRomanPSMT-30"/>
       <use xlink:href="#TimesNewRomanPSMT-2e" x="50"/>
       <use xlink:href="#TimesNewRomanPSMT-37" x="75"/>
      </g>
     </g>
    </g>
    <g id="ytick_2">
     <g id="line2d_2">
      <path d="M 60.5 113.866667 
L 307.8 113.866667 
" clip-path="url(#p24a5a92020)" style="fill: none; stroke-dasharray: 2.96,1.28; stroke-dashoffset: 0; stroke: #cccccc; stroke-width: 0.8"/>
     </g>
     <g id="text_9">
      <!-- 0.8 -->
      <g style="fill: #262626" transform="translate(34.75 119.074479) scale(0.15 -0.15)">
       <use xlink:href="#TimesNewRomanPSMT-30"/>
       <use xlink:href="#TimesNewRomanPSMT-2e" x="50"/>
       <use xlink:href="#TimesNewRomanPSMT-38" x="75"/>
      </g>
     </g>
    </g>
    <g id="ytick_3">
     <g id="line2d_3">
      <path d="M 60.5 67.733333 
L 307.8 67.733333 
" clip-path="url(#p24a5a92020)" style="fill: none; stroke-dasharray: 2.96,1.28; stroke-dashoffset: 0; stroke: #cccccc; stroke-width: 0.8"/>
     </g>
     <g id="text_10">
      <!-- 0.9 -->
      <g style="fill: #262626" transform="translate(34.75 72.941146) scale(0.15 -0.15)">
       <defs>
        <path id="TimesNewRomanPSMT-39" d="M 338 -88 
L 338 28 
Q 744 34 1094 217 
Q 1444 400 1770 856 
Q 2097 1313 2225 1859 
Q 1734 1544 1338 1544 
Q 891 1544 572 1889 
Q 253 2234 253 2806 
Q 253 3363 572 3797 
Q 956 4325 1575 4325 
Q 2097 4325 2469 3894 
Q 2925 3359 2925 2575 
Q 2925 1869 2578 1258 
Q 2231 647 1613 244 
Q 1109 -88 516 -88 
L 338 -88 
z
M 2275 2091 
Q 2331 2497 2331 2741 
Q 2331 3044 2228 3395 
Q 2125 3747 1936 3934 
Q 1747 4122 1506 4122 
Q 1228 4122 1018 3872 
Q 809 3622 809 3128 
Q 809 2469 1088 2097 
Q 1291 1828 1588 1828 
Q 1731 1828 1928 1897 
Q 2125 1966 2275 2091 
z
" transform="scale(0.015625)"/>
       </defs>
       <use xlink:href="#TimesNewRomanPSMT-30"/>
       <use xlink:href="#TimesNewRomanPSMT-2e" x="50"/>
       <use xlink:href="#TimesNewRomanPSMT-39" x="75"/>
      </g>
     </g>
    </g>
    <g id="ytick_4">
     <g id="line2d_4">
      <path d="M 60.5 21.6 
L 307.8 21.6 
" clip-path="url(#p24a5a92020)" style="fill: none; stroke-dasharray: 2.96,1.28; stroke-dashoffset: 0; stroke: #cccccc; stroke-width: 0.8"/>
     </g>
     <g id="text_11">
      <!-- 1.0 -->
      <g style="fill: #262626" transform="translate(34.75 26.807813) scale(0.15 -0.15)">
       <use xlink:href="#TimesNewRomanPSMT-31"/>
       <use xlink:href="#TimesNewRomanPSMT-2e" x="50"/>
       <use xlink:href="#TimesNewRomanPSMT-30" x="75"/>
      </g>
     </g>
    </g>
    <g id="text_12">
     <!-- Score -->
     <g style="fill: #262626" transform="translate(27.541406 107.876563) rotate(-90) scale(0.15 -0.15)">
      <defs>
       <path id="TimesNewRomanPSMT-53" d="M 2934 4334 
L 2934 2869 
L 2819 2869 
Q 2763 3291 2617 3541 
Q 2472 3791 2203 3937 
Q 1934 4084 1647 4084 
Q 1322 4084 1109 3886 
Q 897 3688 897 3434 
Q 897 3241 1031 3081 
Q 1225 2847 1953 2456 
Q 2547 2138 2764 1967 
Q 2981 1797 3098 1565 
Q 3216 1334 3216 1081 
Q 3216 600 2842 251 
Q 2469 -97 1881 -97 
Q 1697 -97 1534 -69 
Q 1438 -53 1133 45 
Q 828 144 747 144 
Q 669 144 623 97 
Q 578 50 556 -97 
L 441 -97 
L 441 1356 
L 556 1356 
Q 638 900 775 673 
Q 913 447 1195 297 
Q 1478 147 1816 147 
Q 2206 147 2432 353 
Q 2659 559 2659 841 
Q 2659 997 2573 1156 
Q 2488 1316 2306 1453 
Q 2184 1547 1640 1851 
Q 1097 2156 867 2337 
Q 638 2519 519 2737 
Q 400 2956 400 3219 
Q 400 3675 750 4004 
Q 1100 4334 1641 4334 
Q 1978 4334 2356 4169 
Q 2531 4091 2603 4091 
Q 2684 4091 2736 4139 
Q 2788 4188 2819 4334 
L 2934 4334 
z
" transform="scale(0.015625)"/>
       <path id="TimesNewRomanPSMT-72" d="M 1038 2947 
L 1038 2303 
Q 1397 2947 1775 2947 
Q 1947 2947 2059 2842 
Q 2172 2738 2172 2600 
Q 2172 2478 2090 2393 
Q 2009 2309 1897 2309 
Q 1788 2309 1652 2417 
Q 1516 2525 1450 2525 
Q 1394 2525 1328 2463 
Q 1188 2334 1038 2041 
L 1038 669 
Q 1038 431 1097 309 
Q 1138 225 1241 169 
Q 1344 113 1538 113 
L 1538 0 
L 72 0 
L 72 113 
Q 291 113 397 181 
Q 475 231 506 341 
Q 522 394 522 644 
L 522 1753 
Q 522 2253 501 2348 
Q 481 2444 426 2487 
Q 372 2531 291 2531 
Q 194 2531 72 2484 
L 41 2597 
L 906 2947 
L 1038 2947 
z
" transform="scale(0.015625)"/>
       <path id="TimesNewRomanPSMT-65" d="M 681 1784 
Q 678 1147 991 784 
Q 1303 422 1725 422 
Q 2006 422 2214 576 
Q 2422 731 2563 1106 
L 2659 1044 
Q 2594 616 2278 264 
Q 1963 -88 1488 -88 
Q 972 -88 605 314 
Q 238 716 238 1394 
Q 238 2128 614 2539 
Q 991 2950 1559 2950 
Q 2041 2950 2350 2633 
Q 2659 2316 2659 1784 
L 681 1784 
z
M 681 1966 
L 2006 1966 
Q 1991 2241 1941 2353 
Q 1863 2528 1708 2628 
Q 1553 2728 1384 2728 
Q 1125 2728 920 2526 
Q 716 2325 681 1966 
z
" transform="scale(0.015625)"/>
      </defs>
      <use xlink:href="#TimesNewRomanPSMT-53"/>
      <use xlink:href="#TimesNewRomanPSMT-63" x="55.615234"/>
      <use xlink:href="#TimesNewRomanPSMT-6f" x="100"/>
      <use xlink:href="#TimesNewRomanPSMT-72" x="150"/>
      <use xlink:href="#TimesNewRomanPSMT-65" x="183.300781"/>
     </g>
    </g>
   </g>
   <g id="patch_3">
    <path d="M 61.383214 482.933333 
L 68.448929 482.933333 
L 68.448929 68.454167 
L 61.383214 68.454167 
z
" clip-path="url(#p24a5a92020)" style="fill: #060717; stroke: #ffffff; stroke-linejoin: miter"/>
   </g>
   <g id="patch_4">
    <path d="M 70.215357 482.933333 
L 77.281071 482.933333 
L 77.281071 82.870833 
L 70.215357 82.870833 
z
" clip-path="url(#p24a5a92020)" style="fill: #100e1f; stroke: #ffffff; stroke-linejoin: miter"/>
   </g>
   <g id="patch_5">
    <path d="M 79.0475 482.933333 
L 86.113214 482.933333 
L 86.113214 77.464583 
L 79.0475 77.464583 
z
" clip-path="url(#p24a5a92020)" style="fill: #1c1428; stroke: #ffffff; stroke-linejoin: miter"/>
   </g>
   <g id="patch_6">
    <path d="M 87.879643 482.933333 
L 94.945357 482.933333 
L 94.945357 73.860417 
L 87.879643 73.860417 
z
" clip-path="url(#p24a5a92020)" style="fill: #291a32; stroke: #ffffff; stroke-linejoin: miter"/>
   </g>
   <g id="patch_7">
    <path d="M 96.711786 482.933333 
L 103.7775 482.933333 
L 103.7775 59.44375 
L 96.711786 59.44375 
z
" clip-path="url(#p24a5a92020)" style="fill: #341e3a; stroke: #ffffff; stroke-linejoin: miter"/>
   </g>
   <g id="patch_8">
    <path d="M 105.543929 482.933333 
L 112.609643 482.933333 
L 112.609643 64.85 
L 105.543929 64.85 
z
" clip-path="url(#p24a5a92020)" style="fill: #412242; stroke: #ffffff; stroke-linejoin: miter"/>
   </g>
   <g id="patch_9">
    <path d="M 114.376071 482.933333 
L 121.441786 482.933333 
L 121.441786 64.85 
L 114.376071 64.85 
z
" clip-path="url(#p24a5a92020)" style="fill: #4e2549; stroke: #ffffff; stroke-linejoin: miter"/>
   </g>
   <g id="patch_10">
    <path d="M 123.208214 482.933333 
L 130.273929 482.933333 
L 130.273929 63.047917 
L 123.208214 63.047917 
z
" clip-path="url(#p24a5a92020)" style="fill: #5c284f; stroke: #ffffff; stroke-linejoin: miter"/>
   </g>
   <g id="patch_11">
    <path d="M 132.040357 482.933333 
L 139.106071 482.933333 
L 139.106071 66.652083 
L 132.040357 66.652083 
z
" clip-path="url(#p24a5a92020)" style="fill: #692a54; stroke: #ffffff; stroke-linejoin: miter"/>
   </g>
   <g id="patch_12">
    <path d="M 140.8725 482.933333 
L 147.938214 482.933333 
L 147.938214 61.245833 
L 140.8725 61.245833 
z
" clip-path="url(#p24a5a92020)" style="fill: #772b58; stroke: #ffffff; stroke-linejoin: miter"/>
   </g>
   <g id="patch_13">
    <path d="M 149.704643 482.933333 
L 156.770357 482.933333 
L 156.770357 61.245833 
L 149.704643 61.245833 
z
" clip-path="url(#p24a5a92020)" style="fill: #842b5a; stroke: #ffffff; stroke-linejoin: miter"/>
   </g>
   <g id="patch_14">
    <path d="M 158.536786 482.933333 
L 165.6025 482.933333 
L 165.6025 52.235417 
L 158.536786 52.235417 
z
" clip-path="url(#p24a5a92020)" style="fill: #932a5c; stroke: #ffffff; stroke-linejoin: miter"/>
   </g>
   <g id="patch_15">
    <path d="M 167.368929 482.933333 
L 174.434643 482.933333 
L 174.434643 52.235417 
L 167.368929 52.235417 
z
" clip-path="url(#p24a5a92020)" style="fill: #a02a5b; stroke: #ffffff; stroke-linejoin: miter"/>
   </g>
   <g id="patch_16">
    <path d="M 176.201071 482.933333 
L 183.266786 482.933333 
L 183.266786 50.433333 
L 176.201071 50.433333 
z
" clip-path="url(#p24a5a92020)" style="fill: #ae2d59; stroke: #ffffff; stroke-linejoin: miter"/>
   </g>
   <g id="patch_17">
    <path d="M 185.033214 482.933333 
L 192.098929 482.933333 
L 192.098929 52.235417 
L 185.033214 52.235417 
z
" clip-path="url(#p24a5a92020)" style="fill: #ba3557; stroke: #ffffff; stroke-linejoin: miter"/>
   </g>
   <g id="patch_18">
    <path d="M 193.865357 482.933333 
L 200.931071 482.933333 
L 200.931071 46.829167 
L 193.865357 46.829167 
z
" clip-path="url(#p24a5a92020)" style="fill: #c74255; stroke: #ffffff; stroke-linejoin: miter"/>
   </g>
   <g id="patch_19">
    <path d="M 202.6975 482.933333 
L 209.763214 482.933333 
L 209.763214 41.422917 
L 202.6975 41.422917 
z
" clip-path="url(#p24a5a92020)" style="fill: #d15054; stroke: #ffffff; stroke-linejoin: miter"/>
   </g>
   <g id="patch_20">
    <path d="M 211.529643 482.933333 
L 218.595357 482.933333 
L 218.595357 39.620833 
L 211.529643 39.620833 
z
" clip-path="url(#p24a5a92020)" style="fill: #d76054; stroke: #ffffff; stroke-linejoin: miter"/>
   </g>
   <g id="patch_21">
    <path d="M 220.361786 482.933333 
L 227.4275 482.933333 
L 227.4275 37.81875 
L 220.361786 37.81875 
z
" clip-path="url(#p24a5a92020)" style="fill: #db6e59; stroke: #ffffff; stroke-linejoin: miter"/>
   </g>
   <g id="patch_22">
    <path d="M 229.193929 482.933333 
L 236.259643 482.933333 
L 236.259643 36.016667 
L 229.193929 36.016667 
z
" clip-path="url(#p24a5a92020)" style="fill: #de7e63; stroke: #ffffff; stroke-linejoin: miter"/>
   </g>
   <g id="patch_23">
    <path d="M 238.026071 482.933333 
L 245.091786 482.933333 
L 245.091786 37.81875 
L 238.026071 37.81875 
z
" clip-path="url(#p24a5a92020)" style="fill: #e18c6e; stroke: #ffffff; stroke-linejoin: miter"/>
   </g>
   <g id="patch_24">
    <path d="M 246.858214 482.933333 
L 253.923929 482.933333 
L 253.923929 34.214583 
L 246.858214 34.214583 
z
" clip-path="url(#p24a5a92020)" style="fill: #e49b7c; stroke: #ffffff; stroke-linejoin: miter"/>
   </g>
   <g id="patch_25">
    <path d="M 255.690357 482.933333 
L 262.756071 482.933333 
L 262.756071 34.214583 
L 255.690357 34.214583 
z
" clip-path="url(#p24a5a92020)" style="fill: #e6a88a; stroke: #ffffff; stroke-linejoin: miter"/>
   </g>
   <g id="patch_26">
    <path d="M 264.5225 482.933333 
L 271.588214 482.933333 
L 271.588214 30.610417 
L 264.5225 30.610417 
z
" clip-path="url(#p24a5a92020)" style="fill: #e9b79a; stroke: #ffffff; stroke-linejoin: miter"/>
   </g>
   <g id="patch_27">
    <path d="M 273.354643 482.933333 
L 280.420357 482.933333 
L 280.420357 30.610417 
L 273.354643 30.610417 
z
" clip-path="url(#p24a5a92020)" style="fill: #ecc3aa; stroke: #ffffff; stroke-linejoin: miter"/>
   </g>
   <g id="patch_28">
    <path d="M 282.186786 482.933333 
L 289.2525 482.933333 
L 289.2525 39.620833 
L 282.186786 39.620833 
z
" clip-path="url(#p24a5a92020)" style="fill: #efd2be; stroke: #ffffff; stroke-linejoin: miter"/>
   </g>
   <g id="patch_29">
    <path d="M 291.018929 482.933333 
L 298.084643 482.933333 
L 298.084643 111.704167 
L 291.018929 111.704167 
z
" clip-path="url(#p24a5a92020)" style="fill: #f3decf; stroke: #ffffff; stroke-linejoin: miter"/>
   </g>
   <g id="patch_30">
    <path d="M 299.851071 482.933333 
L 306.916786 482.933333 
L 306.916786 117.110417 
L 299.851071 117.110417 
z
" clip-path="url(#p24a5a92020)" style="fill: #f7ebe0; stroke: #ffffff; stroke-linejoin: miter"/>
   </g>
   <g id="line2d_5">
    <path clip-path="url(#p24a5a92020)" style="fill: none; stroke: #424242; stroke-width: 2.25; stroke-linecap: round"/>
   </g>
   <g id="line2d_6">
    <path clip-path="url(#p24a5a92020)" style="fill: none; stroke: #424242; stroke-width: 2.25; stroke-linecap: round"/>
   </g>
   <g id="line2d_7">
    <path clip-path="url(#p24a5a92020)" style="fill: none; stroke: #424242; stroke-width: 2.25; stroke-linecap: round"/>
   </g>
   <g id="line2d_8">
    <path clip-path="url(#p24a5a92020)" style="fill: none; stroke: #424242; stroke-width: 2.25; stroke-linecap: round"/>
   </g>
   <g id="line2d_9">
    <path clip-path="url(#p24a5a92020)" style="fill: none; stroke: #424242; stroke-width: 2.25; stroke-linecap: round"/>
   </g>
   <g id="line2d_10">
    <path clip-path="url(#p24a5a92020)" style="fill: none; stroke: #424242; stroke-width: 2.25; stroke-linecap: round"/>
   </g>
   <g id="line2d_11">
    <path clip-path="url(#p24a5a92020)" style="fill: none; stroke: #424242; stroke-width: 2.25; stroke-linecap: round"/>
   </g>
   <g id="line2d_12">
    <path clip-path="url(#p24a5a92020)" style="fill: none; stroke: #424242; stroke-width: 2.25; stroke-linecap: round"/>
   </g>
   <g id="line2d_13">
    <path clip-path="url(#p24a5a92020)" style="fill: none; stroke: #424242; stroke-width: 2.25; stroke-linecap: round"/>
   </g>
   <g id="line2d_14">
    <path clip-path="url(#p24a5a92020)" style="fill: none; stroke: #424242; stroke-width: 2.25; stroke-linecap: round"/>
   </g>
   <g id="line2d_15">
    <path clip-path="url(#p24a5a92020)" style="fill: none; stroke: #424242; stroke-width: 2.25; stroke-linecap: round"/>
   </g>
   <g id="line2d_16">
    <path clip-path="url(#p24a5a92020)" style="fill: none; stroke: #424242; stroke-width: 2.25; stroke-linecap: round"/>
   </g>
   <g id="line2d_17">
    <path clip-path="url(#p24a5a92020)" style="fill: none; stroke: #424242; stroke-width: 2.25; stroke-linecap: round"/>
   </g>
   <g id="line2d_18">
    <path clip-path="url(#p24a5a92020)" style="fill: none; stroke: #424242; stroke-width: 2.25; stroke-linecap: round"/>
   </g>
   <g id="line2d_19">
    <path clip-path="url(#p24a5a92020)" style="fill: none; stroke: #424242; stroke-width: 2.25; stroke-linecap: round"/>
   </g>
   <g id="line2d_20">
    <path clip-path="url(#p24a5a92020)" style="fill: none; stroke: #424242; stroke-width: 2.25; stroke-linecap: round"/>
   </g>
   <g id="line2d_21">
    <path clip-path="url(#p24a5a92020)" style="fill: none; stroke: #424242; stroke-width: 2.25; stroke-linecap: round"/>
   </g>
   <g id="line2d_22">
    <path clip-path="url(#p24a5a92020)" style="fill: none; stroke: #424242; stroke-width: 2.25; stroke-linecap: round"/>
   </g>
   <g id="line2d_23">
    <path clip-path="url(#p24a5a92020)" style="fill: none; stroke: #424242; stroke-width: 2.25; stroke-linecap: round"/>
   </g>
   <g id="line2d_24">
    <path clip-path="url(#p24a5a92020)" style="fill: none; stroke: #424242; stroke-width: 2.25; stroke-linecap: round"/>
   </g>
   <g id="line2d_25">
    <path clip-path="url(#p24a5a92020)" style="fill: none; stroke: #424242; stroke-width: 2.25; stroke-linecap: round"/>
   </g>
   <g id="line2d_26">
    <path clip-path="url(#p24a5a92020)" style="fill: none; stroke: #424242; stroke-width: 2.25; stroke-linecap: round"/>
   </g>
   <g id="line2d_27">
    <path clip-path="url(#p24a5a92020)" style="fill: none; stroke: #424242; stroke-width: 2.25; stroke-linecap: round"/>
   </g>
   <g id="line2d_28">
    <path clip-path="url(#p24a5a92020)" style="fill: none; stroke: #424242; stroke-width: 2.25; stroke-linecap: round"/>
   </g>
   <g id="line2d_29">
    <path clip-path="url(#p24a5a92020)" style="fill: none; stroke: #424242; stroke-width: 2.25; stroke-linecap: round"/>
   </g>
   <g id="line2d_30">
    <path clip-path="url(#p24a5a92020)" style="fill: none; stroke: #424242; stroke-width: 2.25; stroke-linecap: round"/>
   </g>
   <g id="line2d_31">
    <path clip-path="url(#p24a5a92020)" style="fill: none; stroke: #424242; stroke-width: 2.25; stroke-linecap: round"/>
   </g>
   <g id="line2d_32">
    <path clip-path="url(#p24a5a92020)" style="fill: none; stroke: #424242; stroke-width: 2.25; stroke-linecap: round"/>
   </g>
   <g id="patch_31">
    <path d="M 60.5 160 
L 60.5 21.6 
" style="fill: none; stroke: #000000; stroke-linejoin: miter; stroke-linecap: square"/>
   </g>
   <g id="patch_32">
    <path d="M 307.8 160 
L 307.8 21.6 
" style="fill: none; stroke: #000000; stroke-linejoin: miter; stroke-linecap: square"/>
   </g>
   <g id="patch_33">
    <path d="M 60.5 160 
L 307.8 160 
" style="fill: none; stroke: #000000; stroke-linejoin: miter; stroke-linecap: square"/>
   </g>
   <g id="patch_34">
    <path d="M 60.5 21.6 
L 307.8 21.6 
" style="fill: none; stroke: #000000; stroke-linejoin: miter; stroke-linecap: square"/>
   </g>
  </g>
 </g>
 <defs>
  <clipPath id="p24a5a92020">
   <rect x="60.5" y="21.6" width="247.3" height="138.4"/>
  </clipPath>
 </defs>
</svg>
